<?xml version="1.0" standalone="no"?>
<!DOCTYPE svg PUBLIC "-//W3C//DTD SVG 20010904//EN"
 "http://www.w3.org/TR/2001/REC-SVG-20010904/DTD/svg10.dtd">
<svg version="1.0" xmlns="http://www.w3.org/2000/svg"
 width="1120.000000pt" height="1120.000000pt" viewBox="0 0 1120.000000 1120.000000"
 preserveAspectRatio="xMidYMid meet">
<metadata>
Created by potrace 1.14, written by Peter Selinger 2001-2017
</metadata>
<g transform="translate(0.000000,1120.000000) scale(0.100000,-0.100000)"
fill="#000000" stroke="none">
<path d="M1530 10233 c-252 -42 -468 -272 -547 -580 -17 -64 -18 -287 -18
-4053 0 -3766 1 -3989 18 -4053 71 -277 241 -481 467 -559 l65 -23 4085 0
4085 0 65 23 c227 78 396 281 467 559 17 64 18 287 18 4053 0 3766 -1 3989
-18 4053 -70 274 -235 472 -464 560 l-58 22 -4070 1 c-2238 1 -4081 -1 -4095
-3z m1951 -2260 c31 -11 80 -36 108 -54 38 -25 292 -305 936 -1029 487 -547
897 -1012 911 -1034 62 -90 89 -240 64 -356 -27 -127 -26 -126 -963 -1180
-940 -1058 -942 -1059 -1061 -1096 -259 -79 -515 50 -608 307 l-23 64 -3 1960
c-2 1340 1 1982 8 2030 29 192 166 346 357 401 67 19 203 12 274 -13z m4514
-3828 c317 -83 459 -451 281 -729 -63 -98 -185 -182 -299 -206 -36 -7 -340
-10 -982 -8 l-930 3 -60 24 c-270 108 -389 404 -266 661 55 115 183 219 312
254 83 23 1858 23 1944 1z"/>
<path d="M3810 5593 c0 -356 4 -643 8 -638 5 6 135 153 290 327 l281 316 -285
321 c-157 177 -287 321 -290 321 -2 0 -4 -291 -4 -647z"/>
</g>
</svg>
